<svg aria-hidden="true" focusable="false" viewBox="0 0 24 24" class="bf be bj bk"><path d="M9.818 6.545a2.273 2.273 0 100-4.545 2.273 2.273 0 000 4.545z"></path><path fill-rule="evenodd" clip-rule="evenodd" d="M3.364 22h3.182l1.909-3-1.637-2.545-3.454 5.546z"></path><path fill-rule="evenodd" clip-rule="evenodd" d="M11.182 14.818L15.727 22h-3.273l-4.909-7.82v-3.09h-.818c-.545 0-1 .454-1 1v3.09H3v-3.09C3 10 4.727 8.363 6.727 8.363H12l4.273 4.273-1.819 1.727-3.272-3.272v3.727z"></path><path d="M20.727 17.546l-1.636 1.636a1.427 1.427 0 01-2 0l-2.546-2.636 1.364-1.364 1.364-1.273.909-.909 2.545 2.636c.637.455.546 1.364 0 1.91z"></path></svg>